%TF.GenerationSoftware,KiCad,Pcbnew,(6.0.10)*%
%TF.CreationDate,2023-01-16T09:49:42+01:00*%
%TF.ProjectId,catBox2,63617442-6f78-4322-9e6b-696361645f70,rev?*%
%TF.SameCoordinates,Original*%
%TF.FileFunction,Profile,NP*%
%FSLAX46Y46*%
G04 Gerber Fmt 4.6, Leading zero omitted, Abs format (unit mm)*
G04 Created by KiCad (PCBNEW (6.0.10)) date 2023-01-16 09:49:42*
%MOMM*%
%LPD*%
G01*
G04 APERTURE LIST*
%ADD10C,0.200000*%
%TA.AperFunction,Profile*%
%ADD11C,0.200000*%
%TD*%
G04 APERTURE END LIST*
D10*
X129050956Y-90550314D02*
X128839250Y-90528975D01*
X128642022Y-90467776D01*
X128463508Y-90370939D01*
X128307947Y-90242687D01*
X128179577Y-90087244D01*
X128082637Y-89908833D01*
X128021365Y-89711677D01*
X128000000Y-89500000D01*
D11*
X172769698Y-73751720D02*
X174653839Y-76706088D01*
D10*
X181642439Y-45587255D02*
X181356430Y-45558391D01*
X181101506Y-45496882D01*
X180876962Y-45405478D01*
X180682095Y-45286930D01*
X180516202Y-45143990D01*
X180378579Y-44979408D01*
X180268522Y-44795935D01*
X180185329Y-44596322D01*
X180128296Y-44383321D01*
X180096720Y-44159682D01*
X180089897Y-43928157D01*
X180107123Y-43691496D01*
X180147696Y-43452450D01*
X180210912Y-43213771D01*
X180296067Y-42978210D01*
X180402459Y-42748517D01*
X180529383Y-42527444D01*
X180676137Y-42317741D01*
X180842016Y-42122160D01*
X181026318Y-41943452D01*
X181228340Y-41784368D01*
X181447377Y-41647658D01*
X181682726Y-41536074D01*
X181933684Y-41452367D01*
X182199548Y-41399288D01*
X182479614Y-41379588D01*
X182773179Y-41396018D01*
X183079539Y-41451328D01*
X183397991Y-41548271D01*
X183727832Y-41689597D01*
X184068357Y-41878057D01*
X184418865Y-42116402D01*
X184418865Y-42116402D02*
X184574359Y-42242200D01*
X184721005Y-42381392D01*
X184858730Y-42533319D01*
X184987462Y-42697324D01*
X185107130Y-42872747D01*
X185217662Y-43058931D01*
X185318986Y-43255219D01*
X185411031Y-43460952D01*
X185493726Y-43675471D01*
X185566998Y-43898120D01*
X185630776Y-44128240D01*
X185684988Y-44365173D01*
X185729563Y-44608262D01*
X185764429Y-44856847D01*
X185789515Y-45110271D01*
X185804748Y-45367877D01*
X185810058Y-45629006D01*
X185805372Y-45893000D01*
X185790618Y-46159201D01*
X185765727Y-46426951D01*
X185730624Y-46695592D01*
X185685240Y-46964467D01*
X185629502Y-47232916D01*
X185563339Y-47500283D01*
X185486678Y-47765909D01*
X185399450Y-48029136D01*
X185301581Y-48289306D01*
X185193000Y-48545761D01*
X185073635Y-48797843D01*
X184943416Y-49044895D01*
X184802270Y-49286258D01*
X184650126Y-49521274D01*
D11*
X125810722Y-77336276D02*
X125816504Y-77323428D01*
D10*
X174956406Y-77370323D02*
X174959618Y-77445483D01*
X134643635Y-73326455D02*
X134216854Y-72895430D01*
X133793033Y-72439277D01*
X133373265Y-71959144D01*
X132958647Y-71456179D01*
X132550274Y-70931532D01*
X132149242Y-70386349D01*
X131756645Y-69821781D01*
X131373580Y-69238974D01*
X131001141Y-68639078D01*
X130640425Y-68023240D01*
X130292526Y-67392610D01*
X129958541Y-66748335D01*
X129639564Y-66091564D01*
X129336691Y-65423445D01*
X129051018Y-64745127D01*
X128783639Y-64057758D01*
X128535651Y-63362487D01*
X128308149Y-62660461D01*
X128102228Y-61952829D01*
X127918984Y-61240740D01*
X127759512Y-60525342D01*
X127624907Y-59807784D01*
X127516266Y-59089213D01*
X127434683Y-58370778D01*
X127381254Y-57653627D01*
X127357074Y-56938910D01*
X127363240Y-56227773D01*
X127400846Y-55521367D01*
X127470987Y-54820838D01*
X127574760Y-54127336D01*
X127713259Y-53442008D01*
X127887581Y-52766004D01*
X153995101Y-43717889D02*
X154808511Y-43698199D01*
X155603530Y-43718360D01*
X156379971Y-43777254D01*
X157137649Y-43873759D01*
X157876378Y-44006757D01*
X158595974Y-44175127D01*
X159296250Y-44377750D01*
X159977020Y-44613506D01*
X160638100Y-44881275D01*
X161279304Y-45179936D01*
X161900447Y-45508372D01*
X162501343Y-45865461D01*
X163081805Y-46250084D01*
X163641650Y-46661121D01*
X164180692Y-47097452D01*
X164698744Y-47557957D01*
X165195622Y-48041517D01*
X165671140Y-48547013D01*
X166125112Y-49073323D01*
X166557353Y-49619328D01*
X166967678Y-50183909D01*
X167355901Y-50765946D01*
X167721836Y-51364318D01*
X168065298Y-51977907D01*
X168386102Y-52605591D01*
X168684062Y-53246253D01*
X168958992Y-53898770D01*
X169210708Y-54562025D01*
X169439023Y-55234897D01*
X169643752Y-55916266D01*
X169824709Y-56605013D01*
X169981710Y-57300018D01*
X133135937Y-45893677D02*
X133385281Y-45785491D01*
X133636738Y-45683955D01*
X133890174Y-45588991D01*
X134145458Y-45500523D01*
X134402459Y-45418472D01*
X134661044Y-45342763D01*
X134921083Y-45273318D01*
X135182442Y-45210059D01*
X135444991Y-45152911D01*
X135708598Y-45101795D01*
X135973130Y-45056636D01*
X136238457Y-45017355D01*
X136504446Y-44983876D01*
X136770966Y-44956121D01*
X137037885Y-44934015D01*
X137305072Y-44917479D01*
X137572393Y-44906436D01*
X137839719Y-44900811D01*
X138106916Y-44900524D01*
X138373854Y-44905500D01*
X138640400Y-44915662D01*
X138906423Y-44930932D01*
X139171792Y-44951233D01*
X139436373Y-44976489D01*
X139700036Y-45006621D01*
X139962649Y-45041554D01*
X140224080Y-45081210D01*
X140484197Y-45125513D01*
X140742869Y-45174384D01*
X140999964Y-45227747D01*
X141255350Y-45285525D01*
X141508896Y-45347642D01*
X125810080Y-77445483D02*
X125812649Y-77366469D01*
D11*
X171718742Y-90550314D02*
X129050956Y-90550314D01*
D10*
X171719385Y-73326455D02*
X171930878Y-73335084D01*
X172174463Y-73368348D01*
X172387218Y-73423484D01*
X172590154Y-73513841D01*
X172748333Y-73665942D01*
X172769698Y-73751720D01*
D11*
X184650126Y-49521274D02*
X167651106Y-71509123D01*
D10*
X141508896Y-45347642D02*
X141593725Y-45165880D01*
X141683383Y-44982665D01*
X141777605Y-44798536D01*
X141876129Y-44614034D01*
X141978689Y-44429701D01*
X142085023Y-44246076D01*
X142194865Y-44063700D01*
X142307953Y-43883115D01*
X142424022Y-43704860D01*
X142542807Y-43529477D01*
X142664046Y-43357506D01*
X142787475Y-43189489D01*
X142912828Y-43025965D01*
X143039843Y-42867476D01*
X143297801Y-42567763D01*
X143559237Y-42294678D01*
X143822040Y-42052545D01*
X144084097Y-41845690D01*
X144343297Y-41678439D01*
X144597529Y-41555119D01*
X144844680Y-41480054D01*
X145082640Y-41457570D01*
X145309297Y-41491995D01*
X180947369Y-48364323D02*
X181134477Y-48125810D01*
X181249507Y-47946571D01*
X181355878Y-47754821D01*
X181452822Y-47553713D01*
X181539575Y-47346395D01*
X181615369Y-47136020D01*
X181679439Y-46925736D01*
X181731020Y-46718696D01*
X181769344Y-46518048D01*
X181800300Y-46235956D01*
X181797122Y-45985970D01*
X181757224Y-45778723D01*
X181642439Y-45587255D01*
D11*
X174959618Y-77445483D02*
X172769056Y-89500000D01*
D10*
X125812649Y-77366469D02*
X125810722Y-77336276D01*
D11*
X129051598Y-73326455D02*
X134643635Y-73326455D01*
D10*
X128949458Y-42115760D02*
X129172390Y-42068472D01*
X129414696Y-42088174D01*
X129673330Y-42168609D01*
X129945248Y-42303519D01*
X130227403Y-42486646D01*
X130516752Y-42711732D01*
X130810249Y-42972521D01*
X130957601Y-43114348D01*
X131104848Y-43262753D01*
X131251610Y-43416955D01*
X131397506Y-43576172D01*
X131542154Y-43739621D01*
X131685176Y-43906519D01*
X131826189Y-44076086D01*
X131964813Y-44247538D01*
X132100668Y-44420093D01*
X132233373Y-44592970D01*
X132362548Y-44765385D01*
X132487811Y-44936557D01*
X132608782Y-45105704D01*
X132725081Y-45272043D01*
X132942138Y-45593168D01*
X133135937Y-45893677D01*
D11*
X174951267Y-77320216D02*
X174960261Y-77336276D01*
D10*
X172769056Y-89500000D02*
X172747691Y-89711677D01*
X172686428Y-89908833D01*
X172589511Y-90087244D01*
X172461188Y-90242687D01*
X172305704Y-90370939D01*
X172127304Y-90467776D01*
X171930235Y-90528975D01*
X171718742Y-90550314D01*
D11*
X166373385Y-73326455D02*
X171719385Y-73326455D01*
X128000000Y-89500000D02*
X128000000Y-89500000D01*
X171766279Y-57740700D02*
X180947369Y-48364323D01*
D10*
X127887581Y-52766004D02*
X127866822Y-52553879D01*
X127845676Y-52184569D01*
X127834320Y-51940712D01*
X127823068Y-51661463D01*
X127812390Y-51349877D01*
X127802756Y-51009009D01*
X127794635Y-50641916D01*
X127788497Y-50251654D01*
X127784812Y-49841277D01*
X127784048Y-49413842D01*
X127786677Y-48972405D01*
X127793167Y-48520022D01*
X127803989Y-48059747D01*
X127819612Y-47594638D01*
X127840505Y-47127750D01*
X127867139Y-46662139D01*
X127899983Y-46200860D01*
X127939507Y-45746969D01*
X127986180Y-45303522D01*
X128040472Y-44873576D01*
X128102853Y-44460185D01*
X128173792Y-44066405D01*
X128253760Y-43695293D01*
X128343225Y-43349904D01*
X128442658Y-43033294D01*
X128552528Y-42748519D01*
X128673305Y-42498634D01*
X128805458Y-42286696D01*
X128949458Y-42115760D01*
X128000642Y-73751720D02*
X128104336Y-73567241D01*
X128308589Y-73450919D01*
X128506792Y-73387964D01*
X128739204Y-73345552D01*
X128944200Y-73328647D01*
X129051598Y-73326455D01*
D11*
X126118429Y-76702876D02*
X128000642Y-73751720D01*
D10*
X174960261Y-77336276D02*
X174956406Y-77370323D01*
X147513349Y-45605242D02*
X147693017Y-45514113D01*
X147872925Y-45424227D01*
X148053197Y-45335667D01*
X148233957Y-45248516D01*
X148415328Y-45162857D01*
X148597434Y-45078772D01*
X148780399Y-44996346D01*
X148964345Y-44915662D01*
X149149397Y-44836802D01*
X149335679Y-44759850D01*
X149523313Y-44684889D01*
X149712424Y-44612002D01*
X149903135Y-44541272D01*
X150095570Y-44472782D01*
X150289852Y-44406616D01*
X150486106Y-44342857D01*
X150684454Y-44281588D01*
X150885020Y-44222892D01*
X151087928Y-44166852D01*
X151293302Y-44113552D01*
X151501265Y-44063074D01*
X151711941Y-44015501D01*
X151925453Y-43970918D01*
X152141925Y-43929407D01*
X152361481Y-43891051D01*
X152584245Y-43855933D01*
X152810339Y-43824137D01*
X153039887Y-43795745D01*
X153273014Y-43770841D01*
X153509843Y-43749508D01*
X153750497Y-43731830D01*
X153995101Y-43717889D01*
X125816504Y-77323428D02*
X125859488Y-77126606D01*
X125947819Y-76926197D01*
X126073966Y-76750149D01*
X126118429Y-76702876D01*
D11*
X128000000Y-89500000D02*
X125810080Y-77445483D01*
D10*
X174653839Y-76706088D02*
X174788008Y-76872254D01*
X174886913Y-77063852D01*
X174945026Y-77275822D01*
X174951267Y-77320216D01*
X145309297Y-41491995D02*
X145495391Y-41596751D01*
X145704598Y-41801307D01*
X145853685Y-41985995D01*
X146008207Y-42204349D01*
X146166229Y-42452092D01*
X146325818Y-42724949D01*
X146485037Y-43018643D01*
X146641953Y-43328899D01*
X146794631Y-43651441D01*
X146941135Y-43981993D01*
X147079532Y-44316279D01*
X147207887Y-44650022D01*
X147324264Y-44978948D01*
X147426730Y-45298780D01*
X147513349Y-45605242D01*
X167651106Y-71509123D02*
X167492260Y-71718056D01*
X167372993Y-71879287D01*
X167253603Y-72044019D01*
X167134079Y-72211910D01*
X167014413Y-72382618D01*
X166894594Y-72555798D01*
X166774613Y-72731108D01*
X166654461Y-72908205D01*
X166534127Y-73086746D01*
X166413603Y-73266388D01*
X166373385Y-73326455D01*
X169981710Y-57300018D02*
X170105817Y-57484472D01*
X170275002Y-57667889D01*
X170480864Y-57832304D01*
X170654276Y-57932341D01*
X170904106Y-58020283D01*
X171167510Y-58039830D01*
X171368916Y-57998800D01*
X171569687Y-57901616D01*
X171766279Y-57740700D01*
M02*
