%TF.GenerationSoftware,KiCad,Pcbnew,(6.0.10)*%
%TF.CreationDate,2023-01-16T09:49:42+01:00*%
%TF.ProjectId,catBox2,63617442-6f78-4322-9e6b-696361645f70,rev?*%
%TF.SameCoordinates,Original*%
%TF.FileFunction,Legend,Bot*%
%TF.FilePolarity,Positive*%
%FSLAX46Y46*%
G04 Gerber Fmt 4.6, Leading zero omitted, Abs format (unit mm)*
G04 Created by KiCad (PCBNEW (6.0.10)) date 2023-01-16 09:49:42*
%MOMM*%
%LPD*%
G01*
G04 APERTURE LIST*
%ADD10C,0.150000*%
%ADD11C,0.120000*%
G04 APERTURE END LIST*
D10*
%TO.C,SW1*%
X152333333Y-85154761D02*
X152190476Y-85202380D01*
X151952380Y-85202380D01*
X151857142Y-85154761D01*
X151809523Y-85107142D01*
X151761904Y-85011904D01*
X151761904Y-84916666D01*
X151809523Y-84821428D01*
X151857142Y-84773809D01*
X151952380Y-84726190D01*
X152142857Y-84678571D01*
X152238095Y-84630952D01*
X152285714Y-84583333D01*
X152333333Y-84488095D01*
X152333333Y-84392857D01*
X152285714Y-84297619D01*
X152238095Y-84250000D01*
X152142857Y-84202380D01*
X151904761Y-84202380D01*
X151761904Y-84250000D01*
X151428571Y-84202380D02*
X151190476Y-85202380D01*
X151000000Y-84488095D01*
X150809523Y-85202380D01*
X150571428Y-84202380D01*
X149666666Y-85202380D02*
X150238095Y-85202380D01*
X149952380Y-85202380D02*
X149952380Y-84202380D01*
X150047619Y-84345238D01*
X150142857Y-84440476D01*
X150238095Y-84488095D01*
%TO.C,D2*%
X136709132Y-71146631D02*
X136535483Y-70161823D01*
X136301005Y-70203168D01*
X136168587Y-70274870D01*
X136091334Y-70385200D01*
X136060976Y-70487260D01*
X136047157Y-70683111D01*
X136071964Y-70823798D01*
X136151935Y-71003111D01*
X136215369Y-71088634D01*
X136325698Y-71165887D01*
X136474654Y-71187976D01*
X136709132Y-71146631D01*
X135614109Y-70420994D02*
X135558945Y-70382367D01*
X135456884Y-70352009D01*
X135222406Y-70393354D01*
X135136884Y-70456788D01*
X135098257Y-70511952D01*
X135067900Y-70614012D01*
X135084438Y-70707804D01*
X135156140Y-70840221D01*
X135818115Y-71303741D01*
X135208472Y-71411238D01*
X138637568Y-64154191D02*
X137887238Y-64286495D01*
X138328555Y-64595508D02*
X138196251Y-63845178D01*
%TO.C,BT1*%
X156680076Y-67593908D02*
X156612732Y-67728595D01*
X156612732Y-67795938D01*
X156646404Y-67896954D01*
X156747419Y-67997969D01*
X156848435Y-68031641D01*
X156915778Y-68031641D01*
X157016793Y-67997969D01*
X157286167Y-67728595D01*
X156579061Y-67021488D01*
X156343358Y-67257190D01*
X156309687Y-67358206D01*
X156309687Y-67425549D01*
X156343358Y-67526564D01*
X156410702Y-67593908D01*
X156511717Y-67627580D01*
X156579061Y-67627580D01*
X156680076Y-67593908D01*
X156915778Y-67358206D01*
X155972969Y-67627580D02*
X155568908Y-68031641D01*
X156478045Y-68536717D02*
X155770938Y-67829610D01*
X155669923Y-69344839D02*
X156073984Y-68940778D01*
X155871954Y-69142809D02*
X155164847Y-68435702D01*
X155333206Y-68469374D01*
X155467893Y-68469374D01*
X155568908Y-68435702D01*
%TO.C,D1*%
X143193095Y-70877380D02*
X143193095Y-69877380D01*
X142955000Y-69877380D01*
X142812142Y-69925000D01*
X142716904Y-70020238D01*
X142669285Y-70115476D01*
X142621666Y-70305952D01*
X142621666Y-70448809D01*
X142669285Y-70639285D01*
X142716904Y-70734523D01*
X142812142Y-70829761D01*
X142955000Y-70877380D01*
X143193095Y-70877380D01*
X141669285Y-70877380D02*
X142240714Y-70877380D01*
X141955000Y-70877380D02*
X141955000Y-69877380D01*
X142050238Y-70020238D01*
X142145476Y-70115476D01*
X142240714Y-70163095D01*
X146255952Y-63721428D02*
X145494047Y-63721428D01*
X145875000Y-64102380D02*
X145875000Y-63340476D01*
%TO.C,BP1*%
X151504761Y-52428571D02*
X151361904Y-52476190D01*
X151314285Y-52523809D01*
X151266666Y-52619047D01*
X151266666Y-52761904D01*
X151314285Y-52857142D01*
X151361904Y-52904761D01*
X151457142Y-52952380D01*
X151838095Y-52952380D01*
X151838095Y-51952380D01*
X151504761Y-51952380D01*
X151409523Y-52000000D01*
X151361904Y-52047619D01*
X151314285Y-52142857D01*
X151314285Y-52238095D01*
X151361904Y-52333333D01*
X151409523Y-52380952D01*
X151504761Y-52428571D01*
X151838095Y-52428571D01*
X150838095Y-52952380D02*
X150838095Y-51952380D01*
X150457142Y-51952380D01*
X150361904Y-52000000D01*
X150314285Y-52047619D01*
X150266666Y-52142857D01*
X150266666Y-52285714D01*
X150314285Y-52380952D01*
X150361904Y-52428571D01*
X150457142Y-52476190D01*
X150838095Y-52476190D01*
X149314285Y-52952380D02*
X149885714Y-52952380D01*
X149600000Y-52952380D02*
X149600000Y-51952380D01*
X149695238Y-52095238D01*
X149790476Y-52190476D01*
X149885714Y-52238095D01*
D11*
%TO.C,SW1*%
X154500000Y-84750000D02*
G75*
G03*
X154500000Y-84750000I-3500000J0D01*
G01*
X153000000Y-84750000D02*
G75*
G03*
X153000000Y-84750000I-2000000J0D01*
G01*
%TO.C,BT1*%
X143164235Y-75766043D02*
X144260251Y-76862058D01*
X158296320Y-54269996D02*
X143517789Y-69048528D01*
X161478301Y-57451977D02*
X163741043Y-55189235D01*
X150871699Y-78948023D02*
X148608957Y-81210765D01*
X166923023Y-62896699D02*
X169185765Y-60633957D01*
X158296320Y-54269996D02*
X161478301Y-57451977D01*
X154053680Y-82130004D02*
X170105004Y-66078680D01*
X163741043Y-55189235D02*
X164837058Y-56285251D01*
X170105004Y-66078680D02*
X166923023Y-62896699D01*
X169185765Y-60633957D02*
X168089749Y-59537942D01*
X143447078Y-72442641D02*
X142032864Y-73856854D01*
X143517789Y-69048528D02*
X143517789Y-71594113D01*
X143447078Y-73856854D02*
X142032864Y-72442641D01*
X154053680Y-82130004D02*
X150871699Y-78948023D01*
X145426977Y-73503301D02*
X143164235Y-75766043D01*
X148608957Y-81210765D02*
X147512942Y-80114749D01*
X143517789Y-71594113D02*
X145426977Y-73503301D01*
%TD*%
M02*
